<svg width="32" height="32" viewBox="0 0 32 32" fill="none" xmlns="http://www.w3.org/2000/svg">
  <rect width="32" height="32" rx="8" fill="#F5D0A9"/>
  <path d="M16.5 8C19.7 8 22.5 10.8 22.5 14C22.5 14.7 22.3 15.4 22.1 16C21.8 16.9 21.3 17.7 20.6 18.3L24 22L22 24L18.3 20.6C17.7 21.3 16.9 21.8 16 22.1C15.4 22.3 14.7 22.5 14 22.5C10.8 22.5 8 19.7 8 16.5C8 13.3 10.8 10.5 14 10.5C14.7 10.5 15.4 10.7 16 10.9C16.9 11.2 17.7 11.7 18.3 12.4L22 9L24 11L20.6 14.7C21.3 15.3 21.8 16.1 22.1 17C22.3 17.6 22.5 18.3 22.5 19C22.5 22.2 19.7 25 16.5 25C13.3 25 10.5 22.2 10.5 19C10.5 18.3 10.7 17.6 10.9 17C11.2 16.1 11.7 15.3 12.4 14.7L9 11L11 9L14.7 12.4C15.3 11.7 16.1 11.2 17 10.9C17.6 10.7 18.3 10.5 19 10.5C22.2 10.5 25 13.3 25 16.5C25 19.7 22.2 22.5 19 22.5C18.3 22.5 17.6 22.3 17 22.1C16.1 21.8 15.3 21.3 14.7 20.6L11 24L9 22L12.4 18.3C11.7 17.7 11.2 16.9 10.9 16C10.7 15.4 10.5 14.7 10.5 14C10.5 10.8 13.3 8 16.5 8Z" fill="#8B7355"/>
</svg> 